<svg width="24" height="24" viewBox="0 0 24 24" fill="none" xmlns="http://www.w3.org/2000/svg">
<g clip-path="url(#clip0_11_2179)">
<path d="M10.3726 8.86865L13.2499 11.9999L10.3726 15.1328C10.2547 15.2524 10.1886 15.4137 10.1886 15.5816C10.1886 15.7496 10.2547 15.9108 10.3726 16.0305C10.4308 16.0889 10.4999 16.1354 10.5761 16.167C10.6522 16.1987 10.7339 16.215 10.8163 16.215C10.8988 16.215 10.9805 16.1987 11.0566 16.167C11.1328 16.1354 11.2019 16.0889 11.2601 16.0305L14.7687 12.4507C14.8866 12.3314 14.9527 12.1704 14.9527 12.0027C14.9527 11.8349 14.8866 11.6739 14.7687 11.5546L11.2601 7.97486C11.2022 7.91595 11.1331 7.86915 11.0569 7.83721C10.9807 7.80527 10.8989 7.78882 10.8163 7.78882C10.7337 7.78882 10.6519 7.80527 10.5758 7.83721C10.4996 7.86915 10.4305 7.91595 10.3726 7.97486C10.2547 8.09403 10.1886 8.25489 10.1886 8.42251C10.1886 8.59014 10.2547 8.751 10.3726 8.87017V8.86865ZM0 11.9999C0 14.3733 0.703788 16.6934 2.02236 18.6667C3.34094 20.6401 5.21509 22.1782 7.4078 23.0865C9.60051 23.9947 12.0133 24.2323 14.3411 23.7693C16.6689 23.3063 18.8071 22.1634 20.4853 20.4852C22.1635 18.807 23.3064 16.6688 23.7694 14.341C24.2324 12.0132 23.9948 9.60042 23.0866 7.4077C22.1783 5.21499 20.6402 3.34084 18.6668 2.02227C16.6935 0.70369 14.3734 -9.72748e-05 12 -9.72748e-05C8.8174 -9.72748e-05 5.76516 1.26418 3.51472 3.51462C1.26428 5.76506 0 8.81731 0 11.9999ZM22.4421 11.9999C22.4421 14.0652 21.8297 16.084 20.6823 17.8012C19.5349 19.5184 17.9041 20.8568 15.996 21.6471C14.088 22.4375 11.9884 22.6443 9.96285 22.2414C7.93728 21.8384 6.07668 20.8439 4.61632 19.3836C3.15597 17.9232 2.16146 16.0626 1.75855 14.0371C1.35564 12.0115 1.56242 9.91193 2.35276 8.00389C3.1431 6.09584 4.48149 4.46501 6.19868 3.31762C7.91588 2.17023 9.93475 1.55781 12 1.55781C13.3713 1.55766 14.7292 1.82766 15.9962 2.35237C17.2631 2.87708 18.4143 3.64623 19.384 4.6159C20.3537 5.58557 21.1228 6.73676 21.6475 8.00371C22.1722 9.27067 22.4422 10.6286 22.4421 11.9999Z" fill="#0075BE"/>
</g>
<defs>
<clipPath id="clip0_11_2179">
<rect width="23.9999" height="24" fill="white" transform="translate(0 23.9999) rotate(-90)"/>
</clipPath>
</defs>
</svg>
