<svg width="30" height="24" viewBox="0 0 30 24" fill="none" xmlns="http://www.w3.org/2000/svg">
<path d="M7.79883 16H3.29297V14.7871H7.79883V16ZM3.71484 16H2.20312V7.46875H3.71484V16ZM7.20703 12.2031H3.29297V11.0078H7.20703V12.2031ZM7.76953 8.6875H3.29297V7.46875H7.76953V8.6875ZM15.7793 16H14.2617L10.5 9.98828V16H8.98828V7.46875H10.5L14.2734 13.4922V7.46875H15.7793V16Z" fill="#FEFEFE"/>
<path d="M27.7166 9.19336C27.858 9.06949 28.049 9 28.248 9C28.4471 9 28.6381 9.06949 28.7795 9.19336C28.8493 9.25419 28.9048 9.3267 28.9427 9.40666C28.9805 9.48663 29 9.57245 29 9.65914C29 9.74583 28.9805 9.83166 28.9427 9.91162C28.9048 9.99159 28.8493 10.0641 28.7795 10.1249L24.532 13.8069C24.3903 13.9306 24.1991 14 24 14C23.8009 14 23.6097 13.9306 23.468 13.8069L19.2205 10.1249C19.1507 10.0641 19.0952 9.99159 19.0573 9.91162C19.0195 9.83166 19 9.74583 19 9.65914C19 9.57245 19.0195 9.48663 19.0573 9.40666C19.0952 9.3267 19.1507 9.25419 19.2205 9.19336C19.3619 9.06949 19.5529 9 19.752 9C19.951 9 20.142 9.06949 20.2834 9.19336L24.0016 12.213L27.7166 9.19336Z" fill="#FEFEFE"/>
</svg>
