<svg width="24" height="24" viewBox="0 0 24 24" fill="none" xmlns="http://www.w3.org/2000/svg">
<path d="M20.0556 3H4.94444C4.42284 3 4 3.42284 4 3.94444V19.0556C4 19.5772 4.42284 20 4.94444 20H20.0556C20.5772 20 21 19.5772 21 19.0556V3.94444C21 3.42284 20.5772 3 20.0556 3Z" fill="#FEFEFE"/>
<path fill-rule="evenodd" clip-rule="evenodd" d="M7.10228 9.57523H9.37438V16.8857H7.10228V9.57523ZM8.23868 5.94125C8.9652 5.94125 9.55547 6.53152 9.55547 7.25804C9.55547 7.98526 8.9652 8.57577 8.23868 8.57577C8.0636 8.57909 7.88961 8.54747 7.72689 8.48276C7.56417 8.41805 7.41598 8.32155 7.29099 8.1989C7.166 8.07625 7.06671 7.92992 6.99893 7.76845C6.93115 7.60698 6.89624 7.43362 6.89624 7.25851C6.89624 7.08339 6.93115 6.91004 6.99893 6.74857C7.06671 6.5871 7.166 6.44077 7.29099 6.31812C7.41598 6.19547 7.56417 6.09897 7.72689 6.03426C7.88961 5.96955 8.0636 5.93793 8.23868 5.94125ZM10.7995 9.575H12.9788V10.574H13.0091C13.3125 9.99929 14.0536 9.39343 15.1589 9.39343C17.4595 9.39343 17.8845 10.9076 17.8845 12.8761V16.8857H15.6138V13.3306C15.6138 12.4829 15.5983 11.3923 14.4333 11.3923C13.2511 11.3923 13.0695 12.3158 13.0695 13.2694V16.8857H10.7993L10.7995 9.575Z" fill="#0075BE"/>
</svg>
