<svg width="44" height="44" viewBox="0 0 44 44" fill="none" xmlns="http://www.w3.org/2000/svg">
<path d="M11.629 7.96243C14.3796 5.2119 18.1101 3.66667 21.9999 3.66667C25.8898 3.66667 29.6203 5.2119 32.3708 7.96243C35.1214 10.713 36.6666 14.4435 36.6666 18.3333C36.6666 28.2333 23.8333 39.4167 23.1916 39.8933C22.8595 40.1774 22.4369 40.3335 21.9999 40.3335C21.5629 40.3335 21.1403 40.1774 20.8083 39.8933L20.8052 39.8907C20.2123 39.3769 7.33325 28.2157 7.33325 18.3333C7.33325 14.4435 8.87849 10.713 11.629 7.96243Z" fill="#0075BE"/>
<path d="M22.9844 27H22.0469V16.75L18.9609 17.8984V17.0156L22.8281 15.5781H22.9844V27Z" fill="#FEFEFE"/>
</svg>
