<svg width="44" height="44" viewBox="0 0 44 44" fill="none" xmlns="http://www.w3.org/2000/svg">
<path d="M11.629 7.96242C14.3796 5.21189 18.1101 3.66666 21.9999 3.66666C25.8898 3.66666 29.6203 5.21189 32.3708 7.96242C35.1214 10.713 36.6666 14.4435 36.6666 18.3333C36.6666 28.2333 23.8333 39.4167 23.1916 39.8933C22.8595 40.1774 22.4369 40.3334 21.9999 40.3334C21.5629 40.3334 21.1403 40.1774 20.8083 39.8933L20.8052 39.8907C20.2123 39.3769 7.33325 28.2157 7.33325 18.3333C7.33325 14.4435 8.87849 10.713 11.629 7.96242Z" fill="#0075BE"/>
<path d="M25.7656 27H18.6328V26.2734L22.3594 22.0547C22.8281 21.5234 23.2005 21.0599 23.4766 20.6641C23.7526 20.263 23.9505 19.8984 24.0703 19.5703C24.1953 19.237 24.2578 18.9141 24.2578 18.6016C24.2578 17.9141 24.0547 17.3516 23.6484 16.9141C23.2422 16.4766 22.6536 16.2578 21.8828 16.2578C21.3568 16.2578 20.901 16.3724 20.5156 16.6016C20.1302 16.8307 19.8333 17.1432 19.625 17.5391C19.4219 17.9349 19.3203 18.388 19.3203 18.8984H18.3828C18.3828 18.2734 18.5208 17.7005 18.7969 17.1797C19.0781 16.6589 19.4792 16.2448 20 15.9375C20.526 15.625 21.1536 15.4688 21.8828 15.4688C22.9089 15.4688 23.7161 15.7396 24.3047 16.2812C24.8984 16.8177 25.1953 17.5625 25.1953 18.5156C25.1953 18.974 25.0885 19.4349 24.875 19.8984C24.6667 20.362 24.3906 20.8229 24.0469 21.2812C23.7083 21.7396 23.3464 22.1875 22.9609 22.625L19.7812 26.2109H25.7656V27Z" fill="#FEFEFE"/>
</svg>
