<svg width="24" height="24" viewBox="0 0 24 24" fill="none" xmlns="http://www.w3.org/2000/svg">
<path d="M21.7338 20.4482L16.5745 15.2889C17.7354 13.8401 18.3666 12.0383 18.3636 10.1818C18.3636 5.66318 14.7007 2 10.1818 2C5.66318 2 2 5.66318 2 10.1818C2 14.7005 5.66318 18.3636 10.1818 18.3636C12.1136 18.3636 13.8891 17.6941 15.2888 16.5743L20.4481 21.7336C20.5325 21.8182 20.6326 21.8852 20.7429 21.9309C20.8532 21.9767 20.9715 22.0001 21.0909 22C21.2707 22 21.4464 21.9467 21.5959 21.8468C21.7454 21.7469 21.8619 21.605 21.9308 21.4389C21.9996 21.2728 22.0176 21.09 21.9826 20.9137C21.9475 20.7373 21.8609 20.5753 21.7338 20.4482ZM10.1818 16.5455C6.66726 16.5455 3.81818 13.6964 3.81818 10.1818C3.81818 6.66727 6.66726 3.81818 10.1818 3.81818C13.6966 3.81818 16.5454 6.66727 16.5454 10.1818C16.5454 13.6964 13.6966 16.5455 10.1818 16.5455Z" fill="#FEFEFE"/>
</svg>
