<svg width="24" height="24" viewBox="0 0 24 24" fill="none" xmlns="http://www.w3.org/2000/svg">
<path d="M8.97513 19.9975C16.1453 19.9975 20.066 14.2264 20.066 9.22301C20.066 9.05925 20.066 8.89549 20.0554 8.73319C20.8183 8.19693 21.4768 7.533 22 6.77248C21.2889 7.07889 20.5345 7.27998 19.762 7.36902C20.5754 6.89531 21.184 6.15075 21.4747 5.27379C20.7094 5.71513 19.8721 6.02617 18.9989 6.19347C18.4112 5.58644 17.634 5.18449 16.7875 5.04982C15.941 4.91515 15.0724 5.05528 14.3161 5.44851C13.5599 5.84175 12.9581 6.46616 12.6039 7.22513C12.2498 7.9841 12.163 8.83531 12.357 9.64702C10.8072 9.57159 9.29099 9.18037 7.90689 8.49874C6.52279 7.81711 5.30172 6.86033 4.32296 5.6905C3.82397 6.52393 3.67072 7.51079 3.89442 8.45014C4.11812 9.38949 4.70194 10.2107 5.52701 10.7465C4.91094 10.7263 4.30875 10.5634 3.7706 10.2714C3.7706 10.2874 3.7706 10.3035 3.7706 10.3196C3.77049 11.1929 4.08099 12.0395 4.64954 12.716C5.21809 13.3925 6.00977 13.8574 6.8906 14.032C6.31641 14.1839 5.71399 14.2059 5.12967 14.0963C5.37845 14.8492 5.86332 15.5077 6.51641 15.9796C7.16951 16.4515 7.95814 16.7132 8.77194 16.7281C7.39028 17.7793 5.68505 18.3488 3.93013 18.3452C3.6193 18.3454 3.30872 18.3278 3 18.2926C4.78241 19.4048 6.85669 19.9952 8.97513 19.9931" fill="#FEFEFE"/>
</svg>
