<svg width="24" height="24" viewBox="0 0 24 24" fill="none" xmlns="http://www.w3.org/2000/svg">
<path d="M9.66712 11.5C9.66712 9.93526 10.9353 8.66644 12.5 8.66644C14.0647 8.66644 15.3336 9.93526 15.3336 11.5C15.3336 13.0647 14.0647 14.3336 12.5 14.3336C10.9353 14.3336 9.66712 13.0647 9.66712 11.5ZM8.13534 11.5C8.13534 13.9106 10.0894 15.8647 12.5 15.8647C14.9106 15.8647 16.8647 13.9106 16.8647 11.5C16.8647 9.08938 14.9106 7.13534 12.5 7.13534C10.0894 7.13534 8.13534 9.08938 8.13534 11.5ZM16.0174 6.96232C16.0174 7.52532 16.474 7.98259 17.0377 7.98259C17.6007 7.98259 18.058 7.52532 18.058 6.96232C18.058 6.39931 17.6014 5.94273 17.0377 5.94273C16.474 5.94273 16.0174 6.39931 16.0174 6.96232ZM9.06567 18.4188C8.23695 18.381 7.78655 18.243 7.4872 18.1263C7.09035 17.9718 6.80747 17.7878 6.50949 17.4905C6.2122 17.1932 6.0275 16.9103 5.87371 16.5135C5.75699 16.2141 5.61898 15.7637 5.58122 14.935C5.54002 14.039 5.53179 13.7699 5.53179 11.5C5.53179 9.23013 5.54071 8.96167 5.58122 8.06498C5.61898 7.23627 5.75767 6.78655 5.87371 6.48651C6.02819 6.08966 6.2122 5.80679 6.50949 5.5088C6.80679 5.21151 7.08966 5.02682 7.4872 4.87302C7.78655 4.7563 8.23695 4.6183 9.06567 4.58053C9.96167 4.53934 10.2308 4.5311 12.5 4.5311C14.7699 4.5311 15.0383 4.54002 15.935 4.58053C16.7637 4.6183 17.2134 4.75699 17.5135 4.87302C17.9103 5.02682 18.1932 5.21151 18.4912 5.5088C18.7885 5.8061 18.9725 6.08966 19.127 6.48651C19.2437 6.78586 19.3817 7.23627 19.4195 8.06498C19.4607 8.96167 19.4689 9.23013 19.4689 11.5C19.4689 13.7692 19.4607 14.0383 19.4195 14.935C19.3817 15.7637 19.243 16.2141 19.127 16.5135C18.9725 16.9103 18.7885 17.1932 18.4912 17.4905C18.1939 17.7878 17.9103 17.9718 17.5135 18.1263C17.2141 18.243 16.7637 18.381 15.935 18.4188C15.039 18.46 14.7699 18.4682 12.5 18.4682C10.2308 18.4682 9.96167 18.46 9.06567 18.4188M8.99564 3.05149C8.09071 3.09269 7.47278 3.23619 6.93243 3.44628C6.37355 3.66325 5.8998 3.95436 5.42674 4.42674C4.95436 4.89911 4.66325 5.37286 4.44628 5.93243C4.23619 6.47278 4.09269 7.09071 4.05149 7.99564C4.00961 8.90194 4 9.19168 4 11.5C4 13.8083 4.00961 14.0981 4.05149 15.0044C4.09269 15.9093 4.23619 16.5272 4.44628 17.0676C4.66325 17.6265 4.95368 18.1009 5.42674 18.5733C5.89911 19.0456 6.37286 19.3361 6.93243 19.5537C7.47347 19.7638 8.09071 19.9073 8.99564 19.9485C9.90263 19.9897 10.1917 20 12.5 20C14.809 20 15.0981 19.9904 16.0044 19.9485C16.9093 19.9073 17.5272 19.7638 18.0676 19.5537C18.6265 19.3361 19.1002 19.0456 19.5733 18.5733C20.0456 18.1009 20.3361 17.6265 20.5537 17.0676C20.7638 16.5272 20.908 15.9093 20.9485 15.0044C20.9897 14.0974 20.9993 13.8083 20.9993 11.5C20.9993 9.19168 20.9897 8.90194 20.9485 7.99564C20.9073 7.09071 20.7638 6.47278 20.5537 5.93243C20.3361 5.37355 20.0456 4.8998 19.5733 4.42674C19.1009 3.95436 18.6265 3.66325 18.0683 3.44628C17.5272 3.23619 16.9093 3.092 16.005 3.05149C15.0987 3.0103 14.809 3 12.5007 3C10.1917 3 9.90263 3.00961 8.99564 3.05149" fill="#FEFEFE"/>
</svg>
