<svg width="24" height="24" viewBox="0 0 24 24" fill="none" xmlns="http://www.w3.org/2000/svg">
<path d="M7.125 19.875C8.29861 19.875 9.25 18.9236 9.25 17.75C9.25 16.5764 8.29861 15.625 7.125 15.625C5.95139 15.625 5 16.5764 5 17.75C5 18.9236 5.95139 19.875 7.125 19.875Z" fill="#FEFEFE"/>
<path d="M5 9.95868V12.7924C6.87792 12.7943 8.67838 13.5411 10.0064 14.8689C11.3344 16.1967 12.0814 17.9971 12.0837 19.875H14.9163C14.9163 14.4074 10.4676 9.95868 5 9.95868Z" fill="#FEFEFE"/>
<path d="M5 5V7.83369C11.6406 7.83369 17.0424 13.2344 17.0424 19.875H19.875C19.875 11.6725 13.2025 5 5 5Z" fill="#FEFEFE"/>
</svg>
