<svg width="24" height="24" viewBox="0 0 24 24" fill="none" xmlns="http://www.w3.org/2000/svg">
<path d="M15.6565 12.3099C13.9144 11.403 12.2463 10.5693 10.5413 9.69885V14.9062C12.3355 13.956 14.2267 13.0859 15.6639 12.3099H15.6565V12.3099Z" fill="#0075BE"/>
<path d="M10.8689 18.9824C7.25046 18.9175 6.01458 18.8591 5.25493 18.7066C4.74098 18.6053 4.29436 18.3804 3.96688 18.0542C3.71378 17.8073 3.5125 17.4306 3.35634 16.908C3.22239 16.4726 3.17022 16.1104 3.09584 15.2255C2.98198 13.2284 2.95484 11.5957 3.09584 9.7713C3.21217 8.76383 3.26857 7.56786 4.04126 6.87012C4.4061 6.54356 4.83052 6.33342 5.3071 6.24654C6.05159 6.10885 9.22343 6 12.507 6C15.7832 6 18.9621 6.10885 19.7073 6.24654C20.3027 6.35539 20.861 6.6816 21.1888 7.10224C21.8939 8.1825 21.9062 9.52579 21.9778 10.5765C22.0074 11.0772 22.0074 13.92 21.9778 14.4206C21.8664 16.0812 21.7768 16.6687 21.5237 17.2778C21.3672 17.6624 21.2336 17.8654 21.0024 18.0903C20.6397 18.4364 20.1774 18.6666 19.677 18.7502C16.5457 18.9796 13.8867 19.0294 10.8689 18.9824ZM15.664 12.3099C13.922 11.403 12.2539 10.5621 10.5488 9.69164V14.8993C12.3431 13.9492 14.2346 13.0787 15.6714 12.3027L15.664 12.3099Z" fill="#FEFEFE"/>
</svg>
